<svg xmlns="http://www.w3.org/2000/svg" xmlns:xlink="http://www.w3.org/1999/xlink" width="58.396" height="70.82" viewBox="0 0 58.396 70.82"><defs><style>.a{fill:url(#a);}.b{fill:#182e56;}</style><linearGradient id="a" x1="0.445" y1="0.031" x2="0.647" y2="1.15" gradientUnits="objectBoundingBox"><stop offset="0" stop-color="#4570b2"/><stop offset="1" stop-color="#e41c4e"/></linearGradient></defs><g transform="translate(-84.021 -257.236)"><path class="a" d="M97.8,304.394a1.728,1.728,0,0,1-1.164-.709,4.136,4.136,0,0,1-.673-2.081V284.33c.144-1.379.744-2.854,3.277-3.668a10.822,10.822,0,0,0,4.461-2.419,11.942,11.942,0,0,0-6.794-21,.879.879,0,0,0-.944.878v19.747c-.14,1.382-.735,2.864-3.274,3.683l-.073.024a11.885,11.885,0,0,0-2.464,1.031,8.727,8.727,0,0,0-1.624,1.09,11.938,11.938,0,0,0,.124,18.788,8.819,8.819,0,0,0,1.353.909,11.853,11.853,0,0,0,2.62,1.118l.068.023c2.535.82,3.131,2.3,3.27,3.681v18.455a1.386,1.386,0,0,0,1.553,1.38,11.947,11.947,0,0,0,.284-23.65Z" transform="translate(0 0)"/><g transform="translate(102.438 277.577)"><g transform="translate(8.598 22.882)"><path class="b" d="M126.569,328.59v-5.226h-1.216v5.226a2.128,2.128,0,0,0,2.3,2.193h2.086V329.45h-2.086c-.4,0-1.082-.112-1.082-.86" transform="translate(-125.353 -323.364)"/><path class="b" d="M147.373,323.364h-3.294v7.419H145.3V327.8h2.846v2.982h1.216v-5.244a2.089,2.089,0,0,0-1.985-2.175m.769,3.1H145.3V324.7h2.077a.809.809,0,0,1,.769.843Z" transform="translate(-131.839 -323.364)"/><path class="b" d="M156.765,323.364h-2.981v7.419H155V324.7h1.764a1.139,1.139,0,0,1,1.082,1.186v4.9h1.216v-4.9a2.418,2.418,0,0,0-2.3-2.519" transform="translate(-135.201 -323.364)"/><path class="b" d="M134.858,326.468v4.315H139.5V329.45h-3.429V327.8H139.5v-1.333h-3.429V324.7H139.5v-1.333h-4.645Z" transform="translate(-128.645 -323.364)"/></g><path class="b" d="M146.381,302.572h-5.5v-5.017a3.823,3.823,0,0,0-3.839-3.8H125.192v10.905a1.376,1.376,0,0,1-1.379,1.371h-5.82a3.327,3.327,0,0,1-3.336-3.311v-6.744H112.2v6.744a5.773,5.773,0,0,0,5.8,5.737h5.82a3.822,3.822,0,0,0,3.838-3.8v-8.478h9.388a1.376,1.376,0,0,1,1.379,1.372V305h7.963a5.773,5.773,0,0,0,5.8-5.737V288.356h-2.46v10.906A3.327,3.327,0,0,1,146.381,302.572Z" transform="translate(-112.198 -288.356)"/><path class="b" d="M144.414,309.71v2.455h-2.336a.119.119,0,0,1-.119-.119V309.71Z" transform="translate(-122.506 -295.752)"/><path class="b" d="M144.414,304.377v2.455h-2.336a.119.119,0,0,1-.119-.119v-2.336Z" transform="translate(-122.506 -293.905)"/><path class="b" d="M124.676,297.026v2.356h-2.241a.115.115,0,0,1-.114-.114v-2.241Z" transform="translate(-115.704 -291.359)"/></g></g></svg>